<svg width="16" height="16" xmlns="http://www.w3.org/2000/svg" xmlns:xlink="http://www.w3.org/1999/xlink" xml:space="preserve" overflow="hidden"><defs><clipPath id="clip0"><rect x="632" y="352" width="16" height="16"/></clipPath></defs><g clip-path="url(#clip0)" transform="translate(-632 -352)"><path d="M648 359.5C648 360.477 647.432 361.364 646.544 361.772 646.37 361.466 646.151 361.188 645.894 360.948 646.694 360.73 647.165 359.905 646.948 359.105 646.73 358.306 645.905 357.834 645.105 358.052 644.839 358.124 644.564 357.967 644.492 357.7 644.485 357.677 644.481 357.654 644.478 357.631 644.275 355.987 642.777 354.818 641.133 355.021 640.409 355.111 639.742 355.461 639.258 356.006 638.831 355.987 638.403 356.016 637.982 356.094 639.037 354.152 641.466 353.432 643.409 354.487 644.385 355.017 645.096 355.929 645.374 357.004 646.753 356.934 647.927 357.996 647.997 359.375 647.999 359.417 648 359.458 648 359.5" fill="#7B8AB8"/><path d="M639 357C641.292 357 643.218 358.722 643.473 361L643.5 361C644.881 361 646 362.119 646 363.5 646 364.881 644.881 366 643.5 366L635 366C633.343 366.001 631.999 364.659 631.998 363.002 631.997 361.439 633.195 360.137 634.753 360.01 635.386 358.207 637.089 357 639 357M642.5 361.5C642.501 359.567 640.935 357.999 639.002 357.998 637.404 357.996 636.008 359.079 635.61 360.627 635.551 360.857 635.338 361.014 635.1 361.002 633.997 360.953 633.062 361.808 633.013 362.911 632.964 364.015 633.819 364.949 634.923 364.998 634.948 364.999 634.974 365 635 365L643.5 365C644.328 364.998 644.998 364.325 644.997 363.496 644.995 362.668 644.321 361.998 643.493 362 643.369 362 643.245 362.016 643.124 362.047 642.857 362.116 642.584 361.954 642.516 361.687 642.505 361.644 642.499 361.599 642.5 361.555Z" fill="#7B8AB8"/></g></svg>