<svg width="16" height="16" xmlns="http://www.w3.org/2000/svg" xmlns:xlink="http://www.w3.org/1999/xlink" xml:space="preserve" overflow="hidden"><defs><clipPath id="clip0"><rect x="593" y="352" width="16" height="16"/></clipPath></defs><g clip-path="url(#clip0)" transform="translate(-593 -352)"><path d="M601.5 356C599.774 355.999 598.242 357.106 597.7 358.745 597.623 359.01 597.346 359.163 597.081 359.087 596.816 359.01 596.663 358.733 596.739 358.468 596.743 358.456 596.747 358.444 596.751 358.432 597.619 355.81 600.449 354.388 603.072 355.256 604.78 355.822 606.053 357.262 606.405 359.027 608.047 359.249 609.198 360.76 608.976 362.402 608.775 363.891 607.503 365.002 606 365L593.5 365C593.224 365 593 364.776 593 364.5 593 364.224 593.224 364 593.5 364L606 364C607.105 364 608 363.105 608 362 608.001 360.896 607.106 360 606.001 360L605.975 360C605.719 360.002 605.503 359.809 605.475 359.555 605.248 357.531 603.537 356 601.5 356M593 360.5C593 360.224 593.224 360 593.5 360L600.5 360C600.776 360 601 360.224 601 360.5 601 360.776 600.776 361 600.5 361L593.5 361C593.224 361 593 360.776 593 360.5M593 362.5C593 362.224 593.224 362 593.5 362L602.5 362C602.776 362 603 362.224 603 362.5 603 362.776 602.776 363 602.5 363L593.5 363C593.224 363 593 362.776 593 362.5" fill="#7B8AB8"/></g></svg>