<svg width="16" height="16" xmlns="http://www.w3.org/2000/svg" xmlns:xlink="http://www.w3.org/1999/xlink" xml:space="preserve" overflow="hidden"><g transform="translate(-683 -352)"><path d="M696.5 352C696.224 352 696 352.224 696 352.5 696 352.776 696.224 353 696.5 353L698 353 698 355.75 697.5 355.75C697.224 355.75 697 355.974 697 356.25 697 356.526 697.224 356.75 697.5 356.75L698 356.75 698 359.5 696.5 359.5C696.224 359.5 696 359.724 696 360 696 360.276 696.224 360.5 696.5 360.5L698 360.5 698 363.25 697.5 363.25C697.224 363.25 697 363.474 697 363.75 697 364.026 697.224 364.25 697.5 364.25L698 364.25 698 367 696.5 367C696.224 367 696 367.224 696 367.5 696 367.776 696.224 368 696.5 368L698.5 368C698.776 368 699 367.776 699 367.5L699 352.5C699 352.224 698.776 352 698.5 352ZM690 353.5 690.364 353.157C690.175 352.956 689.858 352.946 689.657 353.136 689.65 353.143 689.643 353.15 689.636 353.157L689.634 353.159 689.628 353.166 689.606 353.189 689.526 353.277C689.084 353.768 688.659 354.274 688.252 354.794 687.483 355.777 686.538 357.119 685.867 358.521 685.368 359.564 685 360.682 685 361.733 685 364.614 687.212 367 690 367 692.788 367 695 364.614 695 361.733 695 360.683 694.632 359.564 694.133 358.521 693.462 357.119 692.517 355.777 691.748 354.794 691.316 354.243 690.865 353.707 690.394 353.189L690.372 353.166 690.366 353.159 690.364 353.158ZM690 353.5 689.636 353.157ZM689.984 354.266 690 354.247 690.016 354.266C690.256 354.54 690.588 354.933 690.96 355.41 691.571 356.191 692.28 357.186 692.861 358.237L687.14 358.237C687.72 357.186 688.43 356.191 689.04 355.41 689.413 354.933 689.746 354.54 689.985 354.266ZM686 361.733C686 360.978 686.244 360.121 686.638 359.237L693.362 359.237C693.757 360.121 694 360.978 694 361.733 694 364.117 692.182 366 690 366 687.818 366 686 364.117 686 361.733" fill="#7B8AB8"/></g></svg>