<svg width="16" height="16" xmlns="http://www.w3.org/2000/svg" xmlns:xlink="http://www.w3.org/1999/xlink" xml:space="preserve" overflow="hidden"><defs><clipPath id="clip0"><rect x="586" y="360" width="16" height="16"/></clipPath></defs><g clip-path="url(#clip0)" transform="translate(-586 -360)"><path d="M598.854 360.146C598.659 359.951 598.342 359.951 598.147 360.146L596.5 361.793 600.207 365.5 601.854 363.854C602.049 363.659 602.05 363.342 601.855 363.147 601.855 363.147 601.854 363.146 601.854 363.146ZM599.5 366.207 595.793 362.5 589.293 369 589.5 369C589.776 369 590 369.224 590 369.5L590 370 590.5 370C590.776 370 591 370.224 591 370.5L591 371 591.5 371C591.776 371 592 371.224 592 371.5L592 372 592.5 372C592.776 372 593 372.224 593 372.5L593 372.707ZM592.032 373.675C592.011 373.619 592 373.56 592 373.5L592 373 591.5 373C591.224 373 591 372.776 591 372.5L591 372 590.5 372C590.224 372 590 371.776 590 371.5L590 371 589.5 371C589.224 371 589 370.776 589 370.5L589 370 588.5 370C588.44 370 588.381 369.989 588.325 369.968L588.146 370.146C588.098 370.194 588.061 370.251 588.036 370.314L586.036 375.314C585.933 375.57 586.058 375.861 586.314 375.964 586.434 376.012 586.567 376.012 586.686 375.964L591.686 373.964C591.749 373.939 591.806 373.902 591.854 373.854Z" fill="#FFFFFF"/></g></svg>