<svg width="16" height="16" xmlns="http://www.w3.org/2000/svg" xmlns:xlink="http://www.w3.org/1999/xlink" xml:space="preserve" overflow="hidden"><g transform="translate(-679 -344)"><path d="M687 352C688.657 352 690 350.657 690 349 690 347.343 688.657 346 687 346 685.343 346 684 347.343 684 349 684 350.657 685.343 352 687 352M689 349C689 350.105 688.105 351 687 351 685.895 351 685 350.105 685 349 685 347.895 685.895 347 687 347 688.105 347 689 347.895 689 349M693 357C693 358 692 358 692 358L682 358C682 358 681 358 681 357 681 356 682 353 687 353 692 353 693 356 693 357M692 356.996C691.999 356.75 691.846 356.01 691.168 355.332 690.516 354.68 689.289 354 687 354 684.711 354 683.484 354.68 682.832 355.332 682.154 356.01 682.002 356.75 682 356.996Z" fill="#FFFFFF"/></g></svg>