<svg width="16" height="16" xmlns="http://www.w3.org/2000/svg" xmlns:xlink="http://www.w3.org/1999/xlink" xml:space="preserve" overflow="hidden"><defs><clipPath id="clip0"><rect x="632" y="352" width="16" height="16"/></clipPath></defs><g clip-path="url(#clip0)" transform="translate(-632 -352)"><path d="M643.742 362.344C645.864 359.448 645.237 355.381 642.341 353.259 639.446 351.137 635.378 351.764 633.256 354.66 631.134 357.555 631.761 361.623 634.657 363.745 636.946 365.422 640.058 365.421 642.345 363.742L642.344 363.742C642.373 363.782 642.406 363.82 642.442 363.857L646.292 367.707C646.682 368.098 647.316 368.098 647.706 367.707 648.097 367.317 648.097 366.684 647.707 366.293L643.857 362.443C643.821 362.407 643.783 362.373 643.742 362.343ZM644 358.5C644 361.538 641.538 364 638.5 364 635.462 364 633 361.538 633 358.5 633 355.462 635.462 353 638.5 353 641.538 353 644 355.462 644 358.5" fill="#FFFFFF"/></g></svg>