<svg width="16" height="16" xmlns="http://www.w3.org/2000/svg" xmlns:xlink="http://www.w3.org/1999/xlink" xml:space="preserve" overflow="hidden"><defs><clipPath id="clip0"><rect x="632" y="352" width="16" height="16"/></clipPath></defs><g clip-path="url(#clip0)" transform="translate(-632 -352)"><path d="M639.646 353.146C639.841 352.951 640.158 352.95 640.353 353.145 640.353 353.145 640.354 353.146 640.354 353.146L641.854 354.646C642.049 354.842 642.049 355.158 641.854 355.354 641.659 355.549 641.341 355.549 641.146 355.354L640.5 354.707 640.5 356.5C640.5 356.776 640.276 357 640 357 639.724 357 639.5 356.776 639.5 356.5L639.5 354.707 638.854 355.354C638.659 355.549 638.341 355.549 638.146 355.354 637.951 355.158 637.951 354.842 638.146 354.646ZM634.343 356.343C634.538 356.148 634.855 356.148 635.05 356.343L636.464 357.757C636.656 357.956 636.65 358.272 636.452 358.464 636.258 358.651 635.951 358.651 635.757 358.464L634.343 357.05C634.148 356.855 634.148 356.538 634.343 356.343M645.657 356.343C645.852 356.538 645.852 356.855 645.657 357.05L644.243 358.464C644.051 358.663 643.735 358.668 643.536 358.476 643.337 358.284 643.332 357.968 643.524 357.769 643.528 357.765 643.532 357.761 643.536 357.757L644.95 356.343C645.145 356.148 645.462 356.148 645.657 356.343M640 359C641.657 358.999 643 360.342 643.001 361.999 643.001 362.526 642.862 363.044 642.599 363.5L637.4 363.5C636.572 362.065 637.063 360.23 638.498 359.402 638.955 359.138 639.473 359 640 359M643.71 363.5C644.537 361.452 643.547 359.12 641.499 358.293 639.45 357.466 637.119 358.456 636.292 360.504 635.904 361.465 635.904 362.539 636.292 363.5L632.499 363.5C632.223 363.5 631.999 363.724 631.999 364 631.999 364.276 632.223 364.5 632.499 364.5L647.499 364.5C647.775 364.5 647.999 364.276 647.999 364 647.999 363.724 647.775 363.5 647.499 363.5L643.709 363.5ZM632 362C632 361.724 632.224 361.5 632.5 361.5L634.5 361.5C634.776 361.5 635 361.724 635 362 635 362.276 634.776 362.5 634.5 362.5L632.5 362.5C632.224 362.5 632 362.276 632 362M645 362C645 361.724 645.224 361.5 645.5 361.5L647.5 361.5C647.776 361.5 648 361.724 648 362 648 362.276 647.776 362.5 647.5 362.5L645.5 362.5C645.224 362.5 645 362.276 645 362" fill="#7B8AB8"/></g></svg>