<svg width="16" height="16" xmlns="http://www.w3.org/2000/svg" xmlns:xlink="http://www.w3.org/1999/xlink" xml:space="preserve" overflow="hidden"><g transform="translate(-655 -352)"><path d="M664.5 364.5C664.5 365.328 663.828 366 662.999 365.999 662.171 365.999 661.5 365.327 661.5 364.498 661.5 363.863 661.901 363.297 662.5 363.085L662.5 358.5C662.5 358.224 662.724 358 663 358 663.276 358 663.5 358.224 663.5 358.5L663.5 363.085C664.1 363.297 664.5 363.864 664.5 364.5" fill="#7B8AB8"/><path d="M660.5 354.5C660.5 353.119 661.619 352 663 352 664.381 352 665.5 353.119 665.5 354.5L665.5 362.05C666.853 363.431 666.83 365.647 665.45 367 664.069 368.352 661.853 368.33 660.5 366.949 659.167 365.588 659.167 363.411 660.5 362.05ZM663 353C662.172 353 661.5 353.672 661.5 354.5L661.5 362.487 661.333 362.637C660.304 363.557 660.216 365.138 661.136 366.167 662.056 367.196 663.637 367.284 664.666 366.364 665.695 365.444 665.783 363.863 664.863 362.834 664.801 362.765 664.735 362.699 664.666 362.637L664.5 362.487 664.5 354.5C664.5 353.672 663.828 353 663 353" fill="#7B8AB8"/></g></svg>