<svg width="16" height="16" xmlns="http://www.w3.org/2000/svg" xmlns:xlink="http://www.w3.org/1999/xlink" xml:space="preserve" overflow="hidden"><g transform="translate(-632 -352)"><path d="M644.5 354C643.119 354 642 355.119 642 356.5 642 356.776 641.776 357 641.5 357 641.224 357 641 356.776 641 356.5 641 354.567 642.567 353 644.5 353 646.433 353 648 354.567 648 356.5 648 358.433 646.433 360 644.5 360L632.5 360C632.224 360 632 359.776 632 359.5 632 359.224 632.224 359 632.5 359L644.5 359C645.881 359 647 357.881 647 356.5 647 355.119 645.881 354 644.5 354M637.5 355C636.948 355 636.5 355.448 636.5 356 636.5 356.276 636.276 356.5 636 356.5 635.724 356.5 635.5 356.276 635.5 356 635.5 354.895 636.395 354 637.5 354 638.605 354 639.5 354.895 639.5 356 639.5 357.105 638.605 358 637.5 358L632.5 358C632.224 358 632 357.776 632 357.5 632 357.224 632.224 357 632.5 357L637.5 357C638.052 357 638.5 356.552 638.5 356 638.5 355.448 638.052 355 637.5 355M632 361.5C632 361.224 632.224 361 632.5 361L642.542 361C644.199 361 645.542 362.343 645.542 364 645.542 365.657 644.199 367 642.542 367 640.885 367 639.542 365.657 639.542 364 639.542 363.724 639.766 363.5 640.042 363.5 640.318 363.5 640.542 363.724 640.542 364 640.542 365.105 641.437 366 642.542 366 643.647 366 644.542 365.105 644.542 364 644.542 362.895 643.647 362 642.542 362L632.5 362C632.224 362 632 361.776 632 361.5" fill="#7B8AB8"/></g></svg>